<?xml version="1.0" encoding="UTF-8"?><svg id="Layer_1" xmlns="http://www.w3.org/2000/svg" viewBox="0 0 652 652"><defs><style>.cls-1{fill:#67c8c9;}</style></defs><path class="cls-1" d="M596.97,492.06c-103.18-156.35-15.26-397.65-207.65-453.92-20.77-6.08-42.18-9.21-63.58-9.3h-.13c-21.4,.09-42.81,3.22-63.58,9.3C69.64,94.41,157.56,335.71,54.38,492.06c-5.39,9.18-7.4,17.1-7.06,23.97,.89,21.84,42.93,44.93,72.63,61.08,12.41,6.86,28.39,13.8,42.11,19.14,22.31,8.67,46.06,15.51,70.68,20.39,18.12,3.91,36.36,6.42,54.7,7.51,12.53,.99,25.52,1.49,38.2,1.49h.07c12.68,0,25.67-.5,38.2-1.49,18.34-1.09,36.58-3.6,54.7-7.51,24.62-4.88,48.37-11.72,70.68-20.39,13.72-5.33,29.71-12.28,42.11-19.14,29.69-16.15,71.74-39.25,72.63-61.08,.34-6.87-1.67-14.79-7.06-23.97Zm-51.13,50.54c-19.77,12.98-45.74,27.02-64.12,34.17-47.05,18.3-101.25,27.97-156.05,27.97-54.8,0-109-9.67-156.05-27.97-18.38-7.15-44.35-21.19-64.12-34.17-.93-.67-41.24-23.99-31.41-39.49,22.93-40.41,45.69-99.33,58.92-168.48,16.12-110.45,12.89-225.02,108.13-265.95,24.8-12.39,54.67-18.54,84.53-18.5,29.86-.04,59.73,6.11,84.53,18.5,95.24,40.93,92.01,155.5,108.13,265.95,13.23,69.15,35.99,128.07,58.92,168.48,9.82,15.5-30.49,38.82-31.41,39.49Z"/></svg>